<?xml version="1.0" encoding="UTF-8"?>
<svg id="Layer_1" data-name="Layer 1" xmlns="http://www.w3.org/2000/svg" xmlns:xlink="http://www.w3.org/1999/xlink" viewBox="0 0 156.34 36.38">
  <defs>
    <style>
      .cls-1 {
        fill: #fff;
      }

      .cls-2 {
        fill: none;
        stroke: #fff;
        stroke-width: .5px;
      }

      .cls-3 {
        fill: #d71d89;
      }

      .cls-4 {
        fill: url(#linear-gradient);
      }
    </style>
    <linearGradient id="linear-gradient" x1="112.51" y1="36.19" x2="140.24" y2="3.13" gradientUnits="userSpaceOnUse">
      <stop offset=".08" stop-color="#4839db"/>
      <stop offset=".43" stop-color="#be20bb"/>
      <stop offset=".79" stop-color="#de2a5a"/>
    </linearGradient>
  </defs>
  <rect class="cls-4" x="109.55" y="2.94" width="33.66" height="33.45" rx="5.03" ry="5.03"/>
  <g>
    <path class="cls-3" d="m2.62,12.68v17.07H0V12.68h2.62Z"/>
    <path class="cls-3" d="m8.65,19.46v10.29h-2.62v-12.55h17.29v12.55h-2.62v-10.29h-4.72v10.29h-2.62v-10.29h-4.72Z"/>
    <path class="cls-3" d="m29.61,19.46v10.29h-2.62v-12.55h17.29v12.55h-2.62v-10.29h-4.72v10.29h-2.62v-10.29h-4.72Z"/>
    <path class="cls-1" d="m59.42,17.2l-4.19,12.55h-4.14l-4.19-12.55h2.75l3.3,10.14h.42l3.3-10.14h2.75Z"/>
    <path class="cls-1" d="m60.74,23.48c0-3.94,1.62-6.53,5.66-6.53s5.66,2.33,5.66,6.27v1.38h-8.65c.18,1.76.92,3.14,3.98,3.14,1.05,0,2.07,0,3.77-.45v2.21c-2.04.5-2.78.5-3.77.5-5.92,0-6.65-4.04-6.65-6.53Zm8.7-1.13c-.05-2.18-.92-3.14-3.04-3.14s-2.91,1.1-3.04,3.14h6.08Z"/>
    <path class="cls-1" d="m77.29,19.46v10.29h-2.62v-12.55h7.65v2.26h-5.03Z"/>
    <path class="cls-1" d="m84.42,28.4v-2.54c2.38,1.43,3.62,1.88,5.55,1.88,1.7,0,2.31-.7,2.31-1.48,0-.88-.68-1.36-3.09-1.86-3.75-.78-4.77-1.96-4.77-3.94,0-2.08,1.86-3.51,4.66-3.51,1.76,0,3.48.45,4.77,1.31v2.26c-1.91-.9-3.59-1.31-5.03-1.31-1.34,0-1.78.55-1.78,1.18,0,.7.34,1.18,2.57,1.76,3.88,1,5.29,1.78,5.29,4.09,0,2.13-1.86,3.76-4.93,3.76-2.04,0-3.64-.38-5.55-1.61Z"/>
    <path class="cls-1" d="m97,23.48c0-3.94,1.62-6.53,5.66-6.53s5.66,2.33,5.66,6.27v1.38h-8.65c.18,1.76.92,3.14,3.98,3.14,1.05,0,2.07,0,3.77-.45v2.21c-2.04.5-2.78.5-3.77.5-5.92,0-6.66-4.04-6.66-6.53Zm8.7-1.13c-.05-2.18-.92-3.14-3.04-3.14s-2.91,1.1-3.04,3.14h6.08Z"/>
  </g>
  <g>
    <path class="cls-1" d="m126.93,29.75h-2.75l-1.28-4.02h-7.28l-1.28,4.02h-2.75l5.61-17.07h4.14l5.61,17.07Zm-7.89-14.73l-2.7,8.46h5.82l-2.7-8.46h-.42Z"/>
    <path class="cls-1" d="m131.91,12.68v17.07h-2.62V12.68h2.62Z"/>
  </g>
  <rect class="cls-2" x="146.53" y=".25" width="9.55" height="9.66" rx="4.78" ry="4.78"/>
  <g>
    <path class="cls-1" d="m150.33,3.74h-1.02v2.97h-.41v-2.97h-1.02v-.35h2.45v.35Z"/>
    <path class="cls-1" d="m154.49,6.71h-.41v-2.23c0-.18.01-.39.03-.65h0c-.04.15-.08.26-.11.32l-1.21,2.55h-.2l-1.21-2.53c-.04-.07-.07-.19-.11-.34h0c.01.13.02.35.02.65v2.22h-.4v-3.32h.55l1.08,2.32c.08.18.14.31.16.4h.01c.07-.18.13-.32.17-.41l1.11-2.31h.52v3.32Z"/>
  </g>
</svg>