<svg width="389" height="510" viewBox="0 0 389 510" fill="none" xmlns="http://www.w3.org/2000/svg">
<path fill-rule="evenodd" clip-rule="evenodd" d="M287.346 26.449C281.645 13.2285 262.2 13.6548 257.391 27.7277L250.91 46.714L250.258 48.451C248.523 52.7106 245.894 56.5486 242.55 59.7059C239.205 62.8633 235.222 65.2666 230.87 66.7539L224.994 68.7606L227.5 13C227.5 13 176.501 6.04948 166 7C153.91 8.09432 147.078 9.35035 135.5 13C125.068 16.2884 118.547 19.832 110.5 24.2048L110.499 24.2049L110.499 24.205C107.75 25.6989 104.822 27.2896 101.5 29C98.2041 30.6968 95.2455 32.1136 92.467 33.4441L92.4669 33.4441L92.4668 33.4442L92.4667 33.4443C85.0247 37.008 78.8752 39.9528 71 46C59.774 54.6202 54.4405 61.5127 46.3443 71.9753C45.5892 72.9511 44.8101 73.9579 44 75C36.2224 85.0051 32.1138 90.8998 26 102C20.7068 111.61 18.1271 118.261 14.7014 127.093L14.7013 127.094C13.868 129.242 12.9846 131.52 12 134C10.7115 137.246 9.46833 140.051 8.30011 142.688L8.30004 142.688C5.43931 149.144 3.02793 154.585 1.5 163C0.0188124 171.157 0.461283 177.143 0.953844 183.806C1.22694 187.501 1.51544 191.403 1.5 196C1.36094 237.399 0 302 0 302H284.5C284.5 302 285.966 314.328 284.5 322C283.077 329.449 280.446 333.917 277.151 339.511C276.156 341.2 275.101 342.992 274 345C273.134 346.58 272.333 348.072 271.569 349.495L271.569 349.496L271.568 349.496C267.141 357.744 263.949 363.689 256.5 371C246.987 380.337 239.945 384.226 227.5 389C214.732 393.898 193 395 193 395V402.942L182.213 399.258L180.476 398.607C176.216 396.871 172.377 394.241 169.22 390.895C166.063 387.549 163.66 383.564 162.173 379.21L155.692 360.232L155.193 358.945C149.5 345.733 130.055 346.159 125.246 360.232L118.764 379.218L118.113 380.955C116.377 385.216 113.747 389.054 110.401 392.212C107.055 395.369 103.07 397.772 98.7166 399.258L79.7383 405.748L78.4516 406.23C65.2391 411.932 65.6653 431.377 79.7383 436.185L98.7166 442.667L100.462 443.318C104.721 445.054 108.559 447.682 111.717 451.027C114.874 454.372 117.277 458.354 118.764 462.707L125.254 481.685L125.737 482.972C131.438 496.192 150.883 495.766 155.692 481.693L162.173 462.707L162.825 460.97C164.56 456.71 167.189 452.872 170.533 449.715C173.878 446.558 177.861 444.154 182.213 442.667L193 438.983V493C193 493 207.959 493.722 217.5 493C229.151 492.118 235.739 491.117 247 488C263.93 483.314 272.765 478.244 288 469.5C302.943 460.924 311.235 455.57 324 444C336.304 432.849 342.577 425.673 352 412C363.397 395.462 368.434 384.981 375 366C379.928 351.755 381.445 342.703 383.756 328.921L383.756 328.921C383.994 327.501 384.241 326.031 384.5 324.5C392.624 276.563 384.5 200 384.5 200H101.5C101.5 200 99.467 185.449 101.5 176.5C103.186 169.076 105.798 164.822 109.342 159.049L109.343 159.048L109.343 159.047L109.344 159.045C110.028 157.931 110.747 156.761 111.5 155.5C119.04 142.881 124.134 135.823 135.5 126.5C146.044 117.852 153.32 114.515 166 109.5C172.714 106.845 195.597 104.428 210.391 103.092C210.873 103.307 211.373 103.504 211.891 103.681L230.87 110.163L232.607 110.814C236.867 112.55 240.706 115.18 243.863 118.526C247.02 121.872 249.423 125.857 250.91 130.211L257.391 149.189L257.89 150.476C263.583 163.688 283.028 163.262 287.837 149.189L294.319 130.203L294.97 128.466C296.706 124.205 299.336 120.367 302.682 117.209C306.028 114.052 310.013 111.649 314.366 110.163L333.345 103.673L334.631 103.191C347.844 97.4891 347.418 78.0444 333.345 73.2355L314.366 66.7539L312.621 66.1025C308.362 64.3672 304.524 61.7386 301.367 58.3939C298.209 55.0493 295.806 51.0665 294.319 46.714L287.829 27.7357L287.346 26.449ZM341.203 1.21809C339.926 0.422014 338.452 1.44879e-06 336.947 1.44879e-06C335.269 -0.001006 333.632 0.523426 332.266 1.49976C330.9 2.4761 329.874 3.85538 329.332 5.44421L326.517 13.703L318.267 16.5176L317.318 16.9036C315.888 17.6037 314.697 18.7126 313.898 20.0898C313.099 21.467 312.727 23.0504 312.828 24.6395C312.93 26.2286 313.501 27.7517 314.469 29.0158C315.437 30.28 316.759 31.2282 318.267 31.7405L326.525 34.555L329.34 42.8058L329.726 43.7467C330.425 45.177 331.534 46.3676 332.91 47.1674C334.287 47.9673 335.87 48.3405 337.459 48.2397C339.048 48.139 340.572 47.5688 341.836 46.6014C343.101 45.634 344.05 44.313 344.563 42.8058L347.377 34.547L355.628 31.7324L356.577 31.3464C358.007 30.6463 359.197 29.5374 359.997 28.1602C360.796 26.783 361.168 25.1996 361.067 23.6105C360.965 22.0214 360.394 20.4983 359.426 19.2342C358.458 17.97 357.136 17.0218 355.628 16.5095L347.369 13.695L344.555 5.44421L344.169 4.50334C343.507 3.15236 342.479 2.01416 341.203 1.21809ZM321.433 169.95L321.336 169.966L320.765 170.247L320.605 170.279L320.492 170.247L319.921 169.958C319.835 169.936 319.771 169.952 319.728 170.006L319.696 170.086L319.559 173.528L319.599 173.689L319.68 173.794L320.516 174.389L320.637 174.421L320.733 174.389L321.57 173.794L321.666 173.665L321.698 173.528L321.562 170.094C321.54 170.009 321.497 169.96 321.433 169.95ZM323.556 169.041L323.443 169.057L321.964 169.805L321.883 169.885L321.859 169.974L322.004 173.432L322.044 173.528L322.108 173.593L323.725 174.332C323.827 174.359 323.904 174.338 323.958 174.268L323.99 174.156L323.717 169.218C323.69 169.116 323.636 169.057 323.556 169.041ZM317.806 169.057C317.771 169.036 317.728 169.029 317.688 169.038C317.647 169.047 317.612 169.071 317.589 169.105L317.541 169.218L317.267 174.156C317.273 174.252 317.318 174.316 317.404 174.349L317.525 174.332L319.141 173.585L319.221 173.52L319.246 173.432L319.39 169.974L319.366 169.877L319.286 169.797L317.806 169.057ZM127.65 338.471L127.747 338.455L128.318 338.174L128.478 338.141L128.591 338.174L129.162 338.463C129.248 338.485 129.312 338.468 129.355 338.415L129.387 338.334L129.524 334.893L129.484 334.732L129.403 334.627L128.567 334.032L128.446 334L128.35 334.032L127.513 334.627L127.417 334.756L127.385 334.893L127.521 338.326C127.543 338.412 127.586 338.46 127.65 338.471ZM125.527 339.38L125.64 339.364L127.119 338.616L127.2 338.535L127.224 338.447L127.079 334.989L127.039 334.893L126.975 334.828L125.358 334.088C125.256 334.062 125.179 334.083 125.125 334.153L125.093 334.265L125.366 339.203C125.393 339.305 125.447 339.364 125.527 339.38ZM131.277 339.364C131.312 339.385 131.355 339.392 131.395 339.383C131.436 339.374 131.471 339.35 131.494 339.316L131.542 339.203L131.816 334.265C131.81 334.169 131.765 334.105 131.679 334.072L131.558 334.088L129.942 334.836L129.862 334.901L129.837 334.989L129.693 338.447L129.717 338.544L129.797 338.624L131.277 339.364ZM71.8803 508.203C73.1569 508.999 74.6311 509.421 76.1356 509.421C77.8144 509.422 79.4514 508.897 80.8172 507.921C82.1829 506.945 83.2088 505.566 83.751 503.977L86.5656 495.718L94.8164 492.903L95.7653 492.517C97.1954 491.817 98.3855 490.708 99.1848 489.331C99.984 487.954 100.356 486.37 100.255 484.781C100.153 483.192 99.5821 481.669 98.6139 480.405C97.6457 479.141 96.324 478.193 94.8164 477.68L86.5576 474.866L83.743 466.615L83.357 465.674C82.6576 464.244 81.5493 463.053 80.1726 462.253C78.796 461.454 77.2128 461.08 75.6238 461.181C74.0348 461.282 72.5115 461.852 71.2469 462.819C69.9822 463.787 69.0332 465.108 68.5201 466.615L65.7055 474.874L57.4548 477.688L56.5059 478.074C55.0757 478.775 53.8857 479.884 53.0864 481.261C52.2872 482.638 51.9148 484.221 52.0164 485.81C52.118 487.399 52.6891 488.923 53.6573 490.187C54.6255 491.451 55.9471 492.399 57.4548 492.911L65.7136 495.726L68.5282 503.977L68.9142 504.918C69.5761 506.269 70.6038 507.407 71.8803 508.203Z" fill="white"/>
</svg>
